<svg xmlns="http://www.w3.org/2000/svg">
  <svg transform="translate(122.24 171.3314)" viewBox="0 0 395.52 57.3371">
    <svg viewBox="0 0 395.52 57.3371">
      <svg viewBox="0 0 395.52 57.3371">
        <svg viewBox="0 0 395.52 57.3371">
          <svg viewBox="0 0 395.52 57.3371">
            <svg data-palette-color="#fff" viewBox="2.25 -37.5 260.73 37.8">
              <path fill="#fff" d="M17.3.25q-3.05 0-5.77-.5Q8.8-.75 6.7-2.1T3.43-5.9q-1.18-2.45-1.18-6.35v-24.9h9.7v24.85q0 1.3.63 2.15.62.85 1.82 1.27 1.2.43 2.9.43t2.9-.43q1.2-.42 1.83-1.27.62-.85.62-2.15v-24.85h9.7v24.9q0 3.9-1.17 6.35Q30-3.45 27.9-2.1 25.8-.75 23.1-.25q-2.7.5-5.8.5ZM47.05 0h-9.7v-37.15h9.7v14.45h3.85l5.95-14.45h10.3l-8.55 18.7L67.6 0H57.3l-6.4-14h-3.85V0Zm33.6 0h-9.7v-37.15H86.8q2.45 0 4.5.6t3.55 2.03q1.5 1.42 2.32 3.82.83 2.4.83 6.05 0 2.3-.4 4-.4 1.7-1.08 2.87-.67 1.18-1.6 1.98-.92.8-1.97 1.4L99.4 0h-9.85l-5.2-12.8h-3.7V0Zm0-28.45v7.95h4.4q.8 0 1.4-.23.6-.22 1.02-.72.43-.5.63-1.28.2-.77.2-1.87t-.2-1.85q-.2-.75-.63-1.18-.42-.42-1.02-.62-.6-.2-1.4-.2h-4.4ZM128.14.3q-3.15 0-5.65-.75-2.5-.75-4.3-2.75-1.8-2-2.75-5.75t-.95-9.75q0-5.8 1-9.5t2.83-5.73q1.82-2.02 4.32-2.8 2.5-.77 5.5-.77 3.1 0 5.48.32 2.37.33 4.05.78 1.67.45 2.67.9v7.55q-.95-.2-2.45-.4-1.5-.2-3.42-.33-1.93-.12-4.18-.12-1.7 0-2.87.35-1.18.35-1.88 1.4-.7 1.05-1.02 3.07-.33 2.03-.33 5.38 0 3 .25 5t.9 3.12q.65 1.13 1.88 1.6 1.22.48 3.17.48 3.8 0 6.17-.13 2.38-.12 3.78-.32v7.55q-1.25.5-2.92.85-1.68.35-3.93.55-2.25.2-5.35.2Zm39.85-.3h-13.45q-3.35 0-5.5-1t-3.15-3.15q-1-2.15-1-5.5v-27.5h9.7v25.85q0 .85.27 1.45.28.6.88.88.6.27 1.45.27h10.8V0Zm13.45 0h-9.7v-37.15h9.7V0Zm15.19 0h-9.7v-37.15h7.7l13.05 20.7v-20.7h9.7V0h-7.7l-13.05-20.7V0Zm35.95 0h-9.7v-37.15h9.7V0Zm18.2.3q-3.15 0-5.65-.75-2.5-.75-4.3-2.75-1.8-2-2.75-5.75t-.95-9.75q0-5.8 1-9.5t2.82-5.73q1.83-2.02 4.33-2.8 2.5-.77 5.5-.77 3.1 0 5.47.32 2.38.33 4.05.78 1.68.45 2.68.9v7.55q-.95-.2-2.45-.4-1.5-.2-3.43-.33-1.92-.12-4.17-.12-1.7 0-2.88.35-1.17.35-1.87 1.4-.7 1.05-1.03 3.07-.32 2.03-.32 5.38 0 3 .25 5t.9 3.12q.65 1.13 1.87 1.6 1.23.48 3.18.48 3.8 0 6.17-.13 2.38-.12 3.78-.32v7.55q-1.25.5-2.93.85-1.67.35-3.92.55-2.25.2-5.35.2Z" class="undefined-text-0" data-fill-palette-color="primary"/>
            </svg>
          </svg>
        </svg>
      </svg>
    </svg>
  </svg>
</svg>
